<?xml version="1.0" standalone="no"?>
<!DOCTYPE svg PUBLIC "-//W3C//DTD SVG 20010904//EN"
 "http://www.w3.org/TR/2001/REC-SVG-20010904/DTD/svg10.dtd">
<svg version="1.0" xmlns="http://www.w3.org/2000/svg"
 width="1021.000000pt" height="1280.000000pt" viewBox="0 0 1021.000000 1280.000000"
 preserveAspectRatio="xMidYMid meet">
<g transform="translate(0.000000,1280.000000) scale(0.100000,-0.100000)"
fill="#7beaf0" stroke="none">
<path d="M5180 10303 c-1003 -1374 -1828 -2501 -1834 -2505 -6 -4 -14 -4 -18
-2 -4 3 -8 1089 -8 2415 0 1325 -1 2409 -3 2409 -2 0 -208 -25 -458 -55 -571
-69 -1740 -208 -2349 -280 -256 -31 -475 -58 -487 -60 l-23 -5 0 -6045 0
-6045 23 0 c12 0 753 88 1646 195 893 107 1630 195 1637 195 12 0 14 387 16
2447 2 1808 6 2447 14 2450 7 2 832 -1216 1835 -2706 l1824 -2710 63 0 c34 -1
70 4 80 9 9 6 661 204 1447 441 787 236 1474 444 1528 460 l97 30 0 95 c0 90
-2 97 -29 132 -68 88 -3794 5417 -3795 5428 -1 12 657 895 3046 4088 l778
1040 0 96 0 96 -1532 433 c-843 239 -1537 438 -1542 442 -6 5 -38 9 -71 9
l-62 0 -1823 -2497z"/>
</g>
</svg>
